<?xml version="1.0" encoding="UTF-8"?>
<svg id="Layer_1" data-name="Layer 1" xmlns="http://www.w3.org/2000/svg" viewBox="0 0 110.98 102.69">
  <defs>
    <style>
      .cls-1 {
        fill: #2c180d;
        stroke-width: 0px;
      }
    </style>
  </defs>
  <g>
    <path class="cls-1" d="m26.56,98.95c1.08-.01,2.66-.45,2.72-1.87.04-.84-.56-1.55-1.27-1.87-1.18-.55-2.7-.59-3.95-1.13-.76-.32-1.67-.91-1.67-1.91s.83-1.7,1.58-2.08c.69-.34,1.49-.51,2.29-.51,1.45,0,2.88.46,3.9,1.29l-.52,1.36c-.94-1.36-1.76-2.15-2.97-2.35-.94-.15-1.97.03-2.69.75-.7.73-.53,1.59.45,2.11,1.52.8,3.91.62,5.11,1.89.79.84.82,2.39.14,3.32-.69.93-2.01,1.25-3.18,1.25-1.55,0-2.98-.48-4.11-1.48v-2.41h.13c.52,2.17,2.18,3.64,4.05,3.63Z"/>
    <path class="cls-1" d="m40.74,89.71c-.6-.03-.9.38-.9,1.87v5.64c0,1.49.3,1.89.9,1.86v.13h-3.14v-.13c.6.03.9-.37.9-1.86v-5.64c0-1.49-.3-1.9-.9-1.87v-.13h3.14v.13Z"/>
    <path class="cls-1" d="m48.18,99.08c.6.03.9-.37.9-1.86v-5.64c0-1.49-.3-1.9-.9-1.87v-.13h3.66c2.27,0,4.61.62,4.61,4.75s-2.32,4.87-4.61,4.87h-3.66v-.13Zm2.24-.13h1.81c1.94,0,2.88-1.96,2.88-4.61s-.98-4.5-2.88-4.5h-1.81v9.12Z"/>
    <path class="cls-1" d="m67.06,99.08v.13h-3.14v-.13c.6.03.9-.37.9-1.86v-5.64c0-1.49-.3-1.9-.9-1.87v-.13h5.25c1.14,0,2.52.42,2.52,1.8s-1.39,1.9-2.72,2.36c.8.08,1.25.49,1.46,1.11.27.79.84,2.97,1.35,3.52.2.23.52.41.8.17l.1.08c-.2.41-.6.58-1.01.58-.69,0-1.1-.37-1.36-.87-.51-.93-.77-2.29-1.13-3.25-.3-.84-.75-1.21-1.6-.8-.53.25-1.13.75-1.42,1.08v1.86c0,1.49.3,1.89.9,1.86Zm-.9-4.08c.37-.37.82-.68,1.31-.98.91-.61,2.87-1.42,2.87-2.69.01-1.25-1.24-1.49-2.22-1.49h-1.96v5.16Z"/>
    <path class="cls-1" d="m88.28,98.42c.14.44.38.69.89.68v.11h-2.84v-.11c.48.01.7-.2.55-.68l-.96-2.72c-.49,1.04-1.29,1.25-2.42.89-.55-.2-1.69-.68-2,.21l-.3.79c-.07.24-.08.45,0,.69.03.1.07.21.1.31.14.41.41.52.86.51v.11h-2.38v-.11c.45.01.72-.23.86-.62l3.12-8.89h1.42l3.1,8.83Zm-4.38-8.47l-2.08,5.89c.49-.63,1.2-.73,2.12-.42.65.21,1.36.56,1.89,0l-1.93-5.47Z"/>
  </g>
  <path class="cls-1" d="m100.45,86.87c-29.95.69-60.29.7-90.25,0,29.95-.7,60.29-.69,90.25,0h0Z"/>
  <path class="cls-1" d="m19.68,102.17c23.66-.69,47.63-.7,71.28,0-23.66.7-47.63.69-71.28,0h0Z"/>
  <g>
    <path class="cls-1" d="m58.15,29.69c.19.68.55,1.31.84,1.97.11.25.23.5.34.75.15-1.55.62-3,1.09-4.46-.09,1.21-.18,2.41-.27,3.71.27-.11.48-.16.65-.27.83-.52,1.56-1.17,2.08-2.01.22-.35.41-.77.44-1.17.06-.87.01-1.75-.02-2.62-.05-1.28-.11-2.55.4-3.78.26-.62.49-1.25.73-1.87l-.06-.05c-.34.2-.66.4-1.01.59-1.82,1-3.28,2.37-4.36,4.15-.95,1.57-1.37,3.26-.86,5.06Z"/>
    <path class="cls-1" d="m73.25,22.39c.06-1.64-.53-3.1-1.3-4.5-.09-.16-.24-.29-.39-.47-.04.15-.07.25-.09.35-.21,1.15-.53,2.24-1.22,3.22-.24.34-.39.78-.48,1.19-.32,1.43.48,2.59.96,3.84.52-2.09,1.12-4.16,1.14-6.34.12,2.17-.51,4.27-.69,6.47,1.31-.97,2-2.21,2.06-3.76Z"/>
    <path class="cls-1" d="m31.77,17.07c.51,1.03,1.1,2.02,1.27,3.19.13.91.26,1.82.34,2.73.13,1.55.66,2.87,2,3.78.43.3.85.63,1.31.87.43.23.49.16.52-.32.04-.76-.19-1.46-.42-2.16-.17-.53-.34-1.06-.51-1.58.03,0,.05-.01.08-.02.61,1.53,1.5,2.96,1.48,4.69.03,0,.05.02.08.03.1-.17.24-.33.3-.51,1.06-3.12,1.08-5.71-1.68-8.31-1.43-1.35-3.11-2.29-5.02-2.91.09.2.17.36.25.53Z"/>
    <path class="cls-1" d="m11.26,82c.88.58,1.86.94,2.91.69.81-.19,1.58-.57,2.36-.87.01,0,.01-.04.03-.09-.59-.32-1.18-.68-1.8-.94-.62-.26-1.28-.4-1.92-.6.02-.05.03-.1.05-.15,1.34.41,2.69.82,4.05,1.23-.52-1.42-1.42-2.45-2.94-2.82-1.17-.29-2.35-.33-3.55-.15-1.22.17-2.35.61-3.58.96.11.07.16.13.22.14.69.15,1.27.51,1.83.91.78.56,1.54,1.15,2.34,1.68Z"/>
    <path class="cls-1" d="m67.38,12.02c-1.13.67-1.89,1.64-2.21,2.93-.11.45-.22.9-.28,1.36-.04.27.01.54.03.82,1.36-1.23,2.69-2.43,4.01-3.62l.13.13c-.31.27-.62.53-.92.82-.67.63-1.35,1.25-1.98,1.92-.32.34-.55.78-.81,1.17.03.03.05.05.08.07.08,0,.17,0,.24-.03.7-.24,1.4-.47,2.09-.73,1.28-.49,2.17-1.39,2.59-2.69.37-1.16.68-2.34,1.01-3.52.06-.23.12-.47.17-.71.05-.22.09-.45.14-.67-.78.88-1.76,1.45-2.77,1.95-.51.25-1.01.52-1.5.81Z"/>
    <path class="cls-1" d="m88.86,49.5c-.11-.57-.46-1.04-.9-1.46-.28.82-.52,1.61-.81,2.39-.12.33-.09.61.08.9.14.24.28.49.44.77-.31.14-.59.32-.89.38-.97.19-1.85-.06-2.62-.66-.42-.33-.59-.8-.51-1.33.05-.34.16-.67.25-1.01.09-.34.03-.64-.24-1-.22.21-.47.38-.63.61-.57.8-1.09,1.64-1.66,2.43-1.25,1.74-2.97,2.36-5.03,1.9-1.55-.35-2.61-1.26-2.19-3.22.08-.36.15-.72-.06-1.07-.46.08-.65.19-1.13.66-.76.75-1.5,1.52-2.29,2.24-1.55,1.42-3.32,2.37-5.47,2.51-1.62.1-2.76-.6-3.21-2.08-.21-.69-.39-1.4-.53-2.12-.65-3.34-1.27-6.7-1.91-10.04-.69-3.6-2.05-6.92-4.17-9.91-.16-.22-.33-.45-.51-.69-.05.08-.07.1-.07.13-.6,2.54-1.2,5.07-1.81,7.61-.11.44-.03.8.19,1.17.6,1.02,1.37,1.87,2.27,2.62.64.53,1.3,1.06,1.83,1.7.87,1.04,1.15,2.33,1.26,3.66.09,1.17-.14,2.26-.95,3.16-.56.63-1.13,1.25-1.72,1.85-1.38,1.39-2.94,2.56-4.59,3.61-1.38.87-2.84,1.59-4.4,2.08-1.23.39-2.48.69-3.78.71-1.48.01-2.48-.82-2.79-2.26-.14-.67-.09-1.34,0-2.02.06-.45.08-.88.45-1.24,1.21-1.13,2.48-2.17,3.9-3.02,1.24-.74,2.52-1.34,4.02-1.22.96.07,1.87.31,2.6.95.35.31.62.71.96,1.1.17-.64.39-1.29.5-1.95.14-.86.07-1.72-.48-2.45-.58-.78-1.42-1.06-2.35-1.15-1.81-.17-3.47.33-5.04,1.18-2.61,1.41-4.74,3.38-6.72,5.54-1.59,1.74-3.19,3.47-4.83,5.17-.93.97-2.06,1.68-3.36,2.09-1.11.35-2.23.02-2.83-.92-.51-.8-.69-1.71-.54-2.64.16-1.03.39-2.05.61-3.07.16-.73.27-1.49.55-2.17.56-1.35,1.5-2.48,2.33-3.72.04.11.07.18.08.25.12.54.23,1.09.36,1.63.05.21.01.38-.11.56-.75,1.07-1.5,2.14-2.24,3.22-.05.07-.09.21-.06.28.19.41.41.81.62,1.22-.06-.32-.17-.64-.33-.91-.17-.29-.09-.49.1-.73.82-1.01,1.62-2.02,2.42-3.05.08-.1.14-.27.12-.39-.13-.89-.27-1.77-.41-2.66-.01-.09,0-.21.06-.29.55-.82,1.11-1.64,1.68-2.49.42.77.83,1.52,1.23,2.29.06.11.06.3,0,.42-.48,1.16-.98,2.3-1.47,3.46-.04.1-.07.24-.03.32.16.3.36.58.55.87-.05-.24-.14-.46-.27-.66-.14-.22-.14-.39-.01-.63.6-1.11,1.17-2.24,1.76-3.36.09-.17.08-.3,0-.47-.42-.9-.82-1.8-1.22-2.71-.05-.11-.09-.27-.05-.36.25-.48.53-.96.82-1.45.66.46,1.4.66,2.17.76.1.01.21.1.28.18.58.61,1.15,1.24,1.73,1.86.13.14.16.25.07.43-.44.86-.86,1.74-1.29,2.61-.04.09-.11.24-.08.29.22.31.48.61.72.9.02-.02.04-.03.06-.05-.12-.18-.23-.38-.37-.53-.25-.26-.2-.48-.02-.77.57-.9,1.1-1.82,1.65-2.73-.56-.71-1.11-1.41-1.67-2.12.5-.24.91-.18,1.32.12.26.19.55.36.84.49.28.12.29.31.24.56-.16.94-.32,1.89-.48,2.84-.01.07,0,.19.04.23.32.23.65.44.98.66.01-.02.03-.04.04-.06-.23-.19-.45-.39-.7-.56-.15-.11-.19-.2-.14-.39.26-1.01.5-2.02.75-3.03.05-.2.03-.32-.16-.44-.46-.3-.9-.62-1.35-.93.26-.22.49-.42.71-.61,1.45,1.24,3.15,1.54,4.89,1.42.21-.87.36-1.66.6-2.42.28-.89.5-1.79.2-2.7-.2-.6-.52-1.16-.8-1.78.01-.01.03-.03.05-.04,1.23-.93,2.66-1.3,4.15-1.47.09,0,.21.07.27.14.22.23.52.33.8.22.26-.1.45-.41.42-.68-.03-.3-.25-.55-.56-.61-.32-.05-.54.09-.72.35-.06.09-.17.17-.27.19-.73.17-1.47.3-2.19.5-.85.23-1.62.65-2.3,1.21-.53-.4-.54-.4-.37-.88.5-1.4,1.43-2.47,2.51-3.45.06-.05.19-.05.28-.02.32.08.6,0,.78-.26.17-.24.16-.55-.03-.8-.17-.22-.49-.31-.77-.21-.26.09-.45.37-.41.68.03.21-.06.32-.19.46-.47.49-.95.97-1.38,1.49-.59.71-1.01,1.53-1.25,2.43-1.21-.49-2.31-.38-3.35.39-.06.04-.2.02-.27-.03-1.11-.77-2.34-1.26-3.68-1.45-.1-.01-.22-.08-.28-.16-.65-.87-1.31-1.76-1.66-2.79-.39-1.17-.69-2.38-1.02-3.58-.27-.99-.57-1.97-1.25-2.78-.82-.98-2.4-1.51-3.45.2-.04.07-.09.14-.13.22-.71,1.34-.72,2.73-.34,4.16.11.41.26.81.39,1.22-.45-.63-.87-1.27-1.3-1.91-.48-.71-1-1.38-1.73-1.83-.35-.22-.76-.41-1.16-.46-1.4-.2-1.99.66-2.21,1.62-.33,1.47.04,2.81.81,4.06,1.01,1.61,2.43,2.78,4.06,3.71.79.45,1.63.82,2.48,1.23-1.34.6-2.39,1.51-3.17,2.74-.67,1.07-1.05,2.24-1.27,3.47-.37,2.05-.27,4.04.62,5.94.42.9.94,1.73,1.78,2.3.2.14.22.24.15.46-.45,1.38-.97,2.75-1.12,4.21-.18,1.68.09,3.27,1.08,4.68.91,1.3,2.14,1.99,3.76,1.87.95-.07,1.78-.47,2.48-1.09.73-.64,1.43-1.32,2.1-2.02,1.28-1.33,2.53-2.7,3.8-4.04.23-.25.48-.48.67-.68-.05,1.26-.16,2.52-.13,3.79.03,1.43.61,2.62,1.83,3.44,1.02.68,2.16.64,3.28.46,1.68-.28,3.26-.87,4.77-1.65,2.9-1.5,5.37-3.55,7.58-5.94.85-.92,1.55-1.95,2.03-3.12.15-.37.27-.74.43-1.17.03.1.05.15.06.19.13.63.23,1.26.39,1.89.32,1.3.58,2.62,1.02,3.88.72,2.08,2.48,2.94,4.62,2.67,2-.26,3.61-1.21,4.94-2.71.7-.79,1.45-1.54,2.18-2.3.07-.07.19-.1.29-.15.04.1.12.2.13.3.06.41.08.82.14,1.23.16,1.01.61,1.88,1.6,2.28,1.75.72,3.47.69,5.06-.46.45-.33.84-.74,1.24-1.13.37-.37.71-.77,1.07-1.16.19.28.36.54.54.78,1.22,1.57,3.17,1.79,4.6.42,1.62-1.56,2.05-3.54,1.61-5.71Zm-46.43-12.54c.34-.43.86-.46,1.17-.01.21.31.31.69.46,1.02-.12.35-.18.64-.32.89-.26.45-.73.5-1.12.16-.52-.45-.62-1.52-.19-2.06Zm-14.79-9.73c-.19-1.09-.02-2.14.55-3.12.63-1.08,1.66-1.22,2.54-.34.66.66.95,1.51,1.19,2.38.21.75.39,1.51.57,2.27.33,1.42.93,2.71,1.76,3.9.07.1.13.19.19.29,0,0,0,.02,0,.07-.75.12-1.37.44-1.8,1.03-2.8-1.3-4.49-3.45-5.01-6.48Zm-4.28,4.44c-.83-.93-1.45-1.97-1.62-3.24-.08-.59-.05-1.18.14-1.76.29-.91.97-1.2,1.87-.94.79.23,1.34.8,1.81,1.43.58.78,1.12,1.59,1.63,2.41,1.21,1.94,2.96,3.28,4.87,4.45.14.09.29.17.43.26.02.01.03.03.04.06-.08.26-.17.53-.22.7-.93.14-1.81.28-2.68.41-.1.01-.21,0-.31-.03-2.28-.78-4.34-1.94-5.96-3.76Z"/>
    <path class="cls-1" d="m51.22,18.79c.06.18.2.34.3.51.03,0,.05-.02.08-.03-.02-1.73.87-3.16,1.48-4.69.03,0,.05.01.08.02-.17.53-.35,1.06-.51,1.58-.22.7-.45,1.41-.42,2.16.02.48.08.55.52.32.46-.25.88-.58,1.31-.87,1.33-.91,1.87-2.23,2-3.78.08-.91.21-1.82.34-2.73.17-1.16.76-2.16,1.27-3.19.08-.17.16-.33.26-.53-1.92.62-3.59,1.56-5.03,2.91-2.76,2.61-2.74,5.19-1.68,8.31Z"/>
    <path class="cls-1" d="m97.8,78.3c-1.2-.17-2.38-.14-3.55.15-1.52.38-2.42,1.41-2.94,2.82,1.36-.42,2.71-.82,4.05-1.23.02.05.03.1.05.15-.64.19-1.3.34-1.92.6-.63.26-1.21.62-1.8.94.02.06.02.09.03.09.79.3,1.55.67,2.36.87,1.05.25,2.03-.11,2.91-.69.8-.53,1.56-1.12,2.34-1.68.56-.4,1.14-.76,1.83-.91.06-.01.11-.07.22-.14-1.22-.36-2.36-.79-3.58-.96Z"/>
    <path class="cls-1" d="m22.57,46.91c-.06-.23-.18-.27-.39-.22-.32.08-.66.16-.99.22-.65.11-1.32.19-1.96.33-.3.07-.58.25-.92.41.13.09.16.13.21.15,1.04.42,1.91,1.1,2.8,1.78.64.49,1.33.94,2.02,1.35.33.2.74.27,1.08.39.2-.26.11-.41,0-.59-.36-.55-.72-1.09-1.03-1.67-.18-.34-.33-.63-.75-.68.13.02.26.04.42.06-.17-.53-.33-1.02-.47-1.52Z"/>
    <path class="cls-1" d="m42.56,27.24c.02.48.08.55.52.32.46-.25.88-.58,1.31-.87,1.33-.91,1.87-2.23,2-3.78.08-.91.21-1.82.34-2.73.17-1.16.76-2.16,1.27-3.19.08-.17.16-.33.26-.53-1.92.62-3.59,1.56-5.02,2.91-2.76,2.61-2.74,5.19-1.68,8.31.06.18.2.34.3.51.03,0,.05-.02.08-.03-.02-1.73.87-3.16,1.48-4.69.03,0,.05.01.08.02-.17.53-.35,1.06-.51,1.58-.22.71-.45,1.41-.42,2.16Z"/>
  </g>
  <path class="cls-1" d="m65.48,35.3c1.33-.64,2.66-1.27,3.98-1.93.55-.28,1.12-.56,1.6-.95.28-.23.57-.71.51-.99-.06-.26-.6-.59-.92-.58-1.79.06-3.58.21-5.5.33.1-.28.13-.8.41-1.08.51-.51,1.09-1.08,1.75-1.27,1.99-.57,4.03-.63,6.05-.09.94.25,1.22.81.76,1.58-1.96,3.22-4.88,4.86-8.63,4.96"/>
  <path class="cls-1" d="m82.84,57.42c-.07.68-.46.94-.98,1.14-2.51.99-5,2.02-7.52,3.04,0-.41.1-.72.55-.9,2.64-1.07,5.27-2.17,7.95-3.28"/>
  <path class="cls-1" d="m47.56,49.66c-.1.25-.19.5-.3.75-.3.7-.29.86.33,1.23.7.42.91,1.01.8,1.78-.12.84-.51,1.45-1.33,1.73-.59.2-1.09-.01-1.08-.61.01-.9.11-1.83.35-2.7.22-.79.68-1.51,1.04-2.26.06.03.12.06.19.08m-1.14,3.55c-.14.19-.13.45.04.62.1.1.17.16.2.15.2-.09.39-.21.58-.32.27-.17.3-.56.05-.77,0,0,0,0,0,0-.21-.17-.52-.14-.68.08-.06.08-.12.16-.19.25"/>
  <path class="cls-1" d="m84.72,60.45c-.32.24-.71-.21-.42-.5.73-.72,1.43-1.4,2.15-2.07.69-.63,1.46-1.21,2.27-1.65.42-.23,1.07-.25,1.55-.13,1.08.28,1.93.2,2.46-.91.05-.1.17-.15.17-.15.24.21.47.41.71.62.18.16.47.07.53-.17.02-.08.04-.16.06-.23.08-.34.57-.33.64.01.11.58-.01,1.12-.38,1.45-.28.25-.83.19-1.26.26-.26.04-.63-.03-.77.12-.62.65-1.37.71-2.13.48-1.14-.35-2.1-.05-2.97.67-.86.72-1.68,1.5-2.58,2.18,0,0-.01.01-.02.02"/>
  <path class="cls-1" d="m66.54,38.48c-.32,1.02-.73,2.02-.94,3.05-.39,1.86-.71,3.75-.98,5.63-.11.78-.03,1.63.91,1.96,1.02.36,1.51-.39,2.03-1.04.21-.27.41-.54.71-.77-.06,1.61-.4,3.14-1.46,4.38-1.03,1.21-2.88.8-3.36-.91-.35-1.28-.25-2.75-.1-4.11.33-2.98,1.58-5.67,3.19-8.21"/>
  <path class="cls-1" d="m82.27,38.85c-.94-.73-2.15-.34-2.62.96-.45,1.24-.75,2.53-1.08,3.81-.05.2-.33.21-.4.02,0,0,0,0,0,0-.51-1.46-.99-2.94-2.29-3.93-1.15-.88-1.97-.39-2.49.83-.03.07-.05.15-.07.22-.04.12-.07.25-.07.38,0,.11,0,.11.05.3,0,0,.12.23.12.23.1.16.13.18.28.3.51.41.61.4,1.26.09.51-.24.79-.07,1,.35.57,1.14,1.14,2.27,1.69,3.42.14.29.24.6.37.98.06.19.33.19.39,0,.19-.57.35-1.04.51-1.51.52-1.57.99-3.16,1.56-4.71.29-.79.54-.75,1.1-.14.35.38.98.3,1.2-.17.06-.14.1-.27.09-.4-.03-.36-.31-.78-.61-1.01"/>
  <path class="cls-1" d="m89.49,15.89c-.51-1.98.2-3.69.35-5.25-.18-.23-.35-.45-.53-.66.09.18.13.36.1.55-.84,1.05-1.67,2.1-2.51,3.14-2.83,4.48-6.39,10.27-2.51,17.02.71,1.23,1.5,2.64,2.63,3.35-.58-4.31-1.4-15.11.68-17.08-.93,4.31-1.95,11.25.32,16.01.05-.06.1-.13.15-.19,5.33-3.27,2.97-10.48,1.31-16.89Zm-6.92-3.73c-3.31,2.52-6.82,3.34-4.44,9.09.03,0,.06,0,.09-.01,0-.06-.01-.11-.02-.17.86-1.87.75-4.82,2.54-5.92,0,.03,0,.06.01.09-.87,1.77-1.66,3.57-1.75,6.01.03,0,.06,0,.09-.01,3.32-2.25,2.97-5.04,3.75-9.09-.09.01-.17.02-.26.03Zm-.83-6.93c-.24-.07-.47-.14-.71-.2-1.01,1.45-1.86,2.96-2.42,4.29,1.58-.57,3.69-.91,4.91-1.85.44-.34.81-.77,1.15-1.26-.96-.37-1.94-.68-2.92-.97Zm-4.15-1.13c-.1.29-.18.6-.25.93-.19.86-.43,3.45.21,4.23.33-.95,1.55-2.65,3.02-4.36-.99-.28-1.99-.53-2.99-.8Zm21.83,29.15c-.44-1.55-.53-3.22-1.28-4.45-.56,4.77-4.62,6.47-5.46,10.07-.28,1.19.5,5.53,1.13,6.2.38-.74.76-1.47,1.14-2.21,1.17-2.42,2.51-4.92,3.12-7.72.03,0,.06,0,.09,0-.15,4.13-3.79,7.44-3.73,10.83.03,0,.06,0,.09-.01,4.3-2.2,6.84-5.91,4.91-12.69Zm10.96,11.87s0,0,0-.01c-3.05,1.57-6.48,4.4-7.51,7.27.06.05.13.1.19.15,3.23.28,5.79-.68,7.81-2.19.04-.31.07-.61.12-.92-.04-1.47-.26-2.9-.6-4.31Zm-1.04-3.35c-.75.21-1.49.46-2.2.76-3.68,1.58-5.6,5.39-5.37,10.06.03,0,.06,0,.09-.01.08-.07.16-.13.24-.2.89-2.76,4.99-5.93,8.23-7.5-.27-1.05-.6-2.08-.97-3.11Zm-3.5,17.04c1.44-.21,1.86-1.28,2.82-1.88-.64,1.14-1.59,1.9-2.64,2.72.04.05.07.11.11.16,1.8-.17,3.16-.91,4.13-1.99.1-1.36.18-2.73.28-4.09-2.38,1.09-4.9,1.78-4.7,5.07Zm-4.93-36.52c-1.26,1.03-2.92,1.9-3.22,3.35.09.02.18.04.27.06,1.56-.57,3-.7,4.12-1.51-.35-.66-.74-1.29-1.16-1.9Zm-.52-.72c-.49-.64-1.01-1.26-1.55-1.86-1.24,1.15-1.75,3.3-1.83,5.22,1.23-.99,2.46-1.97,3.69-2.95-.1-.14-.2-.28-.3-.41Zm5.44,11.74c-.32.57-.59,1.19-.74,1.91.41-.22.85-.41,1.27-.59-.18-.44-.37-.88-.54-1.32Zm-1.25-3.56c-.87,1.5-1.31,3.36-.55,5.25l.25-.11c.35-.66.78-1.49,1.29-2.24-.37-.96-.7-1.92-.98-2.89Z"/>
  <path class="cls-1" d="m47.36.2c-.32.54-.59,1.11-.77,1.73-.18.78-.39,1.55-.63,2.31-.4,1.29-1.23,2.2-2.48,2.72-.47.2-.94.37-1.42.54-.31.11-.34.08-.36-.24-.05-.96.25-1.83.69-2.66.28-.54.57-1.08.85-1.63.06-.11.09-.23.14-.34-.03-.01-.06-.02-.09-.04-1.17,1.6-1.75,3.47-2.34,5.34-.04,0-.09,0-.13,0-.1-.4-.27-.79-.3-1.2-.11-1.35,0-2.64.36-3.85.05-.17.11-.35.18-.52,2.14-.58,4.25-1.25,6.29-2.17Z"/>
  <path class="cls-1" d="m9.77,71.09c-1.2-.37-2.34-.72-3.49-1.07.85.83,2.33.84,2.79,2.21-2.4.69-4.83-.02-6.77-1.35-.32-1.02-.62-2.05-.89-3.1.23-.05.46-.1.7-.15,1.4-.3,2.78-.58,4.22-.15,1.63.48,2.75,1.5,3.39,3.06.04.11.07.22.1.33,0,.05-.02.11-.04.22Z"/>
  <path class="cls-1" d="m18.21,61.22c1.69,1.16,3.38,2.32,5.26,3.61-.55.24-.93.51-1.35.56-2.87.35-5.47-.26-7.66-2.24-2.81-2.55-4.46-5.7-4.86-9.48-.02-.19,0-.38,0-.63.7.61,1.32,1.19,1.98,1.71,1.67,1.34,3.67,1.8,5.73,2.09.7.1,1.41.22,2.1.39,1.71.41,3.02,1.38,3.73,3,.56,1.25.98,2.56,1.51,3.99-2.5-.55-4.26-2.21-6.44-2.99Z"/>
  <path class="cls-1" d="m18.67,31.02c-3.48.49-6.19-.81-8.19-3.62-.79-1.11-1.37-2.31-1.77-3.56.26-.4.53-.8.8-1.19.85-.7,1.63-1.5,2.36-2.36.17.1.34.2.52.29.77.43,1.54.87,2.31,1.3,1.89,1.06,3.14,2.65,3.75,4.72.33,1.14.59,2.31.83,3.47.14.66-.05.88-.61.96Z"/>
  <path class="cls-1" d="m14.41,51.13c-.05.06-.09.13-.14.19-.52-.11-1.04-.2-1.55-.32-4.63-1.09-7.66-3.93-9.18-8.41-.63-1.86-1.15-3.74-1.39-5.66h0c.25-.44.5-.88.72-1.33.44-1.25.93-2.48,1.46-3.69,1.27,1.96,2.92,3.55,4.82,4.94,1.45,1.06,2.74,2.31,3.64,3.91.86,1.54,1.24,3.23,1.41,4.96.12,1.3.14,2.61.11,3.94-2.43-1.87-4.48-4.05-6.14-6.62.1.21.19.43.31.63,1.19,2.06,2.7,3.88,4.3,5.64.55.6,1.09,1.22,1.63,1.82Z"/>
  <path class="cls-1" d="m.31,56.94c1.75,1.38,3.49,2.76,5.33,4.21-1.89.63-3.58.53-5.24-.21-.09-.04-.18-.08-.27-.13-.04-.39-.09-.78-.12-1.17.15-.9.25-1.8.31-2.71Z"/>
  <path class="cls-1" d="m.31,56.9c.07-1.17.08-2.34.06-3.52.94.26,1.87.61,2.74,1.04,2.12,1.05,3.02,2.98,3.46,5.18.06.3.1.6.17,1.07-2.22-1.33-4.3-2.58-6.39-3.83-.01.02-.02.03-.04.05Z"/>
  <path class="cls-1" d="m38.14,7.12c-.44,1.4-1.34,2.37-2.78,2.84.73-1.56,1.45-3.09,2.16-4.61-.04-.02-.08-.04-.12-.06-.63,1.58-1.34,3.11-2.54,4.37-.61-1.47-.39-2.79.61-3.98.39-.47.83-.9,1.22-1.37.28-.34.55-.69.85-1.06h0c.14-.17.28-.35.43-.53.02.14.06.27.1.4.04.14.08.29.1.44.21,1.19.34,2.38-.03,3.56Z"/>
  <path class="cls-1" d="m31.4,7.27c-.08.21-.16.41-.23.62-.27.93-.53,1.86-.81,2.78-.1.34-.22.69-.36,1.01-.39.85-1.03,1.39-1.99,1.56.24-1.25.5-2.44,1.35-3.41-.86,1.01-1.64,2.06-1.8,3.49-.07-.11-.12-.17-.14-.24-.24-.78-.39-1.59-.26-2.41.13-.8.58-1.44,1.25-1.86.95-.58,1.95-1.09,2.93-1.62.02.02.05.05.07.07Z"/>
  <path class="cls-1" d="m24.48,15.76c.44,1.26.95,2.46,2.11,3.32-.13,0-.21.02-.28,0-.8-.19-1.57-.46-2.21-.98-.63-.51-.95-1.22-.97-2.02-.03-1.12.04-2.23.07-3.35.03,0,.06-.02.09-.03.14.17.27.35.42.51.66.7,1.34,1.4,2,2.11.24.26.48.53.69.82.54.76.68,1.59.34,2.51-.96-.83-1.86-1.66-2.27-2.88Z"/>
  <path class="cls-1" d="m18.26,18.87s-.04.03-.07.04c.48.86.96,1.72,1.48,2.66-1.15-.01-1.99-.41-2.42-1.33-.31-.68-.51-1.44-.6-2.18-.1-.82-.02-1.66-.02-2.53.14.05.17.05.18.07.49.87,1.17,1.55,1.97,2.14,1,.73,1.3,1.78,1.22,3.08-.62-.69-1.19-1.31-1.76-1.94Z"/>
  <path class="cls-1" d="m70.18,1.44c-.35,1.26-.7,2.51-1.1,3.75-.71,2.22-2.22,3.75-4.4,4.58-1.17.45-2.37.84-3.55,1.24-.13.04-.28.04-.42.06-.05-.04-.09-.08-.14-.12.46-.67.83-1.41,1.38-1.99,1.07-1.14,2.23-2.19,3.37-3.26.51-.48,1.05-.93,1.57-1.39-.07-.07-.14-.15-.22-.22-2.25,2.03-4.5,4.07-6.82,6.16-.02-.46-.11-.93-.04-1.39.11-.78.29-1.55.48-2.31.55-2.19,1.84-3.84,3.76-4.98.83-.5,1.69-.95,2.56-1.38.13-.06.25-.12.38-.19.67.22,1.46.53,2.44,1.04.25.14.5.28.75.41Z"/>
  <path class="cls-1" d="m51.77,84.65h16.13s-.85-.14-.61-1.01c0,0,3.17-3.17-1.31-8.22,0,0-.26-.37-.78-.63l-.1.07s1.89,4.33-2.18,6.47l.04-2.09-.88-5.22s-.9-4.26,3.36-6.98c0,0,2.6-2.47,7.65-.73,3.29.7,6.45.58,6.45.58,0,0,8.97,1.64,7.99,7.35l.07.04.23-.22s2.66-3.11-1.27-5.87c-1.3-.79-1.99-.93-2.53-1.04-.22-.04-.44-.07-.66-.08-1.38-.07-2.28-.32-2.28-.32l.02-.13s.96.07,1.69-.14,3.81-.8,5.86.29c2.05,1.08,4.33,2.84,4.89,7.13h.11s0-.03,0-.03l.13-.47s2.12-6.66-6.87-8.12c-2.52-.34-4.96.15-4.96.15,0,0,4.29-4.67,9.95.14l1.11,1.09.1-.07s-2.12-6.99-9.63-3.95c-.41.17-.8.39-1.16.66-1.29.97-5.35,3.49-8.85.13-.42-.41-.88-.78-1.39-1.06-4.65-2.55-10.43.49-12.58,2.26-.28.23-.52.48-.73.77-.74.98-3.47,4.13-7.73,3.45-.18-.03-.37-.05-.56-.07-3.93-.4-5.82-3-5.82-3,0,0-1.89-2.62-3.8-3.13s-4.06-.23-6.76,1.64l-.26.31h.32s3.49-.56,4.02-.5,2.19-.31,5.63,2.75l.07.13s-4.88-.55-5.33-.39c-1.11.08-3-.08-4.32-.37s-2.95.69-3.48,1.17-2.22,1.36-2.22,1.36l.2.07s1.71-.35,2.29-.62,2.25-1.61,7.01-.03c0,0-4.86,5.66-11.48,2.38-.14-.07-.29-.11-.44-.11-.52-.01-1.3.17-1.3.17l-.64.03s-3.31.75-4.29,3.01l.08.08s4.42-2.61,8.47-.78c0,0-4.82,2.15-3.48,6.65h.12s.18-.47.18-.47c0,0,.1-.24.11-.41,0-.15,1.04-2.85,4.51-4.65.5-.26,1.05-.42,1.61-.48.95-.1,2.64-.37,3.73-1.04,1.77-.78,5.95-3.25,8.89-2.47,2.94.79,6.7,1.61,9.9,4.33,3.19,2.72,3.83,8.98-2.24,10.26Z"/>
</svg>